HIERARCHY
ROOT hip
{
	OFFSET 0.000000 0.000000 0.000000
	CHANNELS 6 Xposition Yposition Zposition Zrotation Yrotation Xrotation 
	JOINT lhipjoint
	{
		OFFSET 0.000000 0.000000 0.000000
		CHANNELS 3 Zrotation Yrotation Xrotation
		JOINT lfemur
		{
			OFFSET 1.363060 -1.794630 0.839290
			CHANNELS 3 Zrotation Yrotation Xrotation
			JOINT ltibia
			{
				OFFSET 2.448110 -6.726130 0.000000
				CHANNELS 3 Zrotation Yrotation Xrotation
				JOINT lfoot
				{
					OFFSET 2.562200 -7.039590 0.000000
					CHANNELS 3 Zrotation Yrotation Xrotation
					JOINT ltoes
					{
						OFFSET 0.157640 -0.433110 2.322550
						CHANNELS 3 Zrotation Yrotation Xrotation
						End Site
						{
							OFFSET 0.000000 0.000000 0.000000
						}
					}
				}
			}
		}
	}
	JOINT rhipjoint
	{
		OFFSET 0.000000 0.000000 0.000000
		CHANNELS 3 Zrotation Yrotation Xrotation
		JOINT rfemur
		{
			OFFSET -1.305520 -1.794630 0.839290
			CHANNELS 3 Zrotation Yrotation Xrotation
			JOINT rtibia
			{
				OFFSET -2.542530 -6.985550 0.000000
				CHANNELS 3 Zrotation Yrotation Xrotation
				JOINT rfoot
				{
					OFFSET -2.568260 -7.056230 0.000000
					CHANNELS 3 Zrotation Yrotation Xrotation
					JOINT rtoes
					{
						OFFSET -0.164730 -0.452590 2.363150
						CHANNELS 3 Zrotation Yrotation Xrotation
						End Site
						{
							OFFSET 0.000000 0.000000 0.000000
						}
					}
				}
			}
		}
	}
	JOINT lowerback
	{
		OFFSET 0.000000 0.000000 0.000000
		CHANNELS 3 Zrotation Yrotation Xrotation
		JOINT upperback
		{
			OFFSET 0.028270 2.035590 -0.193380
			CHANNELS 3 Zrotation Yrotation Xrotation
			JOINT thorax
			{
				OFFSET 0.056720 2.048850 -0.042750
				CHANNELS 3 Zrotation Yrotation Xrotation
				JOINT lowerneck
				{
					OFFSET 0.000000 0.000000 0.000000
					CHANNELS 3 Zrotation Yrotation Xrotation
					JOINT upperneck
					{
						OFFSET -0.054170 1.746240 0.172020
						CHANNELS 3 Zrotation Yrotation Xrotation
						JOINT head
						{
							OFFSET 0.104070 1.761360 -0.123970
							CHANNELS 3 Zrotation Yrotation Xrotation
							End Site
							{
								OFFSET 0.000000 0.000000 0.000000
							}
						}
					}
				}
				JOINT lclavicle
				{
					OFFSET 0.000000 0.000000 0.000000
					CHANNELS 3 Zrotation Yrotation Xrotation
					JOINT lhumerus
					{
						OFFSET 3.362410 1.200890 -0.311210
						CHANNELS 3 Zrotation Yrotation Xrotation
						JOINT lradius
						{
							OFFSET 4.983000 -0.000000 -0.000000
							CHANNELS 3 Zrotation Yrotation Xrotation
							JOINT lwrist
							{
								OFFSET 3.483560 -0.000000 -0.000000
								CHANNELS 3 Zrotation Yrotation Xrotation
								JOINT lhand
								{
									OFFSET 0.000000 0.000000 0.000000
									CHANNELS 3 Zrotation Yrotation Xrotation
									JOINT lfingers
									{
										OFFSET 0.715260 -0.000000 -0.000000
										CHANNELS 3 Zrotation Yrotation Xrotation
										End Site
										{
											OFFSET 0.000000 0.000000 0.000000
										}
									}
								}
								JOINT lthumb
								{
									OFFSET 0.000000 0.000000 0.000000
									CHANNELS 3 Zrotation Yrotation Xrotation
									End Site
									{
										OFFSET 0.000000 0.000000 0.000000
									}
								}
							}
						}
					}
				}
				JOINT rclavicle
				{
					OFFSET 0.000000 0.000000 0.000000
					CHANNELS 3 Zrotation Yrotation Xrotation
					JOINT rhumerus
					{
						OFFSET -3.136600 1.374050 -0.404650
						CHANNELS 3 Zrotation Yrotation Xrotation
						JOINT rradius
						{
							OFFSET -5.241900 -0.000000 -0.000000
							CHANNELS 3 Zrotation Yrotation Xrotation
							JOINT rwrist
							{
								OFFSET -3.444170 -0.000000 -0.000000
								CHANNELS 3 Zrotation Yrotation Xrotation
								JOINT rhand
								{
									OFFSET 0.000000 0.000000 0.000000
									CHANNELS 3 Zrotation Yrotation Xrotation
									JOINT rfingers
									{
										OFFSET -0.622530 -0.000000 -0.000000
										CHANNELS 3 Zrotation Yrotation Xrotation
										End Site
										{
											OFFSET 0.000000 0.000000 0.000000
										}
									}
								}
								JOINT rthumb
								{
									OFFSET 0.000000 0.000000 0.000000
									CHANNELS 3 Zrotation Yrotation Xrotation
									End Site
									{
										OFFSET 0.000000 0.000000 0.000000
									}
								}
							}
						}
					}
				}
			}
		}
	}
}
MOTION
Frames: 9
Frame Time: 0.008333
2.034857 16.200836 2.039426 152.897106 -31.793491 170.820952 -9.164132 -4.440089 -0.542472 25.973426 6.198290 -31.331885 1.053275 6.374373 20.833787 -0.918422 17.597753 6.780602 0.012500 -0.722800 -1.986300 7.647806 8.936818 -4.911611 -18.400346 -10.297156 18.108282 -3.848426 -17.937810 42.001744 -1.884602 10.332052 -22.525974 -1.675900 8.155600 -23.187700 5.616758 -5.979240 20.917494 1.133108 -10.548012 -0.822860 -9.273831 -5.987948 13.952124 2.541588 14.284101 -8.018262 -16.799050 23.720079 1.538062 -7.806700 10.859100 2.410900 -10.447058 -2.231118 3.378679 -26.590081 -0.716735 -33.845514 6.341726 -14.701886 -1.992536 -0.352429 1.793628 54.070746 50.288936 -13.334491 -17.205800 -7.125000 0.000000 0.000000 15.826100 8.573300 -13.843200 10.826236 3.793698 5.446280 40.554219 -37.187271 -1.440639 -43.204981 52.346017 -24.718438 0.248764 -0.416186 -19.195931 -10.010084 15.338292 -2.781800 7.125000 0.000000 0.000000 11.775600 -14.163600 8.726000 
2.020167 16.169842 2.045069 152.782650 -31.719286 170.772239 -9.108545 -4.489024 -0.559467 24.599488 7.855737 -31.548689 1.393754 7.029552 22.720529 -0.277611 14.658267 11.963221 0.000800 -0.185300 -0.509200 7.665447 8.913839 -4.894958 -18.409143 -9.948419 17.995508 -4.006193 -18.060516 42.562268 -1.932442 10.292078 -22.864301 -1.666200 8.133100 -23.119100 5.667458 -6.056311 20.918538 1.135344 -10.640967 -0.858029 -9.294173 -6.021291 13.790136 2.561475 14.370373 -7.898320 -16.765732 23.772912 1.324175 -7.819900 10.880100 2.310800 -10.459978 -2.271032 3.373812 -26.224668 -0.813302 -34.114677 6.128430 -14.382698 -1.927272 -0.346104 1.823364 54.351100 50.325043 -13.504551 -17.443300 -7.125000 0.000000 0.000000 15.816100 8.292800 -13.925300 10.821439 3.805327 5.438461 40.402917 -36.833975 -1.775786 -41.727848 51.626449 -23.580513 0.258598 -0.415238 -18.818459 -10.643134 14.828544 -2.870600 7.125000 0.000000 0.000000 11.353500 -14.621400 8.287000 
2.011657 16.145208 2.054833 152.627602 -31.614059 170.753377 -9.023576 -4.531751 -0.580993 23.410133 8.785759 -31.550243 1.767765 7.704655 24.698160 0.237112 12.096109 15.798343 0.000000 0.008300 0.022900 7.681509 8.885664 -4.877814 -18.441489 -9.583937 17.844544 -4.155706 -18.170919 43.088746 -1.973478 10.289034 -23.136216 -1.627000 8.041700 -22.840900 5.739538 -6.096894 20.946985 1.122604 -10.701364 -0.881331 -9.391821 -6.027074 13.653375 2.605001 14.444197 -7.812144 -16.718745 23.815742 1.134116 -7.822100 10.896900 2.222500 -10.477150 -2.312990 3.368819 -25.826000 -0.959502 -34.099712 6.004695 -14.209746 -1.888927 -0.353555 1.840743 54.152243 50.236955 -13.604656 -17.520600 -7.125000 0.000000 0.000000 15.745900 8.167800 -13.898700 10.807473 3.827057 5.415665 40.432235 -36.542554 -1.879720 -40.778103 51.146567 -22.846979 0.270799 -0.424667 -19.240147 -11.360550 14.237406 -2.955400 7.125000 0.000000 0.000000 10.877800 -15.144100 7.802300 
2.007805 16.127024 2.068987 152.463454 -31.434929 170.752538 -8.923229 -4.575130 -0.607414 22.310146 9.379536 -31.436620 2.158052 8.370544 26.687819 0.657575 9.967530 18.820998 0.000000 -0.028500 -0.078300 7.697531 8.853690 -4.860343 -18.492663 -9.212796 17.622506 -4.299675 -18.271151 43.592787 -2.009431 10.291398 -23.372346 -1.604900 7.989500 -22.682100 5.861912 -6.089495 21.004935 1.098411 -10.712481 -0.888440 -9.562826 -5.995660 13.554708 2.685938 14.490725 -7.780590 -16.724535 23.834218 0.929045 -7.840300 10.893700 2.150100 -10.491465 -2.355255 3.366810 -25.441870 -1.154073 -33.776611 5.990741 -14.216749 -1.883289 -0.374168 1.842676 53.511586 50.071666 -13.615826 -17.441400 -7.125000 0.000000 0.000000 15.647100 8.209900 -13.790800 10.779311 3.865728 5.367702 40.724249 -36.231327 -2.120770 -40.043827 50.776535 -22.269223 0.279235 -0.442895 -19.661104 -11.782215 13.863575 -2.994900 7.125000 0.000000 0.000000 10.599600 -15.465900 7.520900 
2.005117 16.108750 2.085290 152.301708 -31.175179 170.752094 -8.809436 -4.626229 -0.640456 21.356932 9.658838 -31.082925 2.528809 9.001650 28.586453 0.924640 8.643732 20.561261 0.000500 0.140500 0.386000 7.712155 8.822913 -4.844298 -18.539811 -8.808320 17.345235 -4.449295 -18.366905 44.107540 -2.043193 10.249257 -23.612143 -1.613700 8.010200 -22.745000 5.956341 -6.051785 21.098854 1.074715 -10.704581 -0.877850 -9.723034 -5.960244 13.518753 2.780099 14.533034 -7.835203 -16.792564 23.878383 0.733569 -7.866600 10.890400 2.120800 -10.503485 -2.388132 3.367104 -25.117361 -1.352557 -33.311203 6.073889 -14.369947 -1.905448 -0.404677 1.829015 52.608342 49.777990 -13.478733 -17.109800 -7.125000 0.000000 0.000000 15.505100 8.524900 -13.554900 10.743219 3.914029 5.301156 41.184645 -35.811922 -2.504548 -39.413094 50.462049 -21.752207 0.279579 -0.467222 -19.955133 -11.861052 13.864938 -3.017900 7.125000 0.000000 0.000000 10.552800 -15.435000 7.493600 
2.001534 16.087430 2.103653 152.141205 -30.863619 170.781294 -8.694575 -4.681157 -0.676134 20.467418 9.855231 -30.620660 2.864451 9.567533 30.294950 1.099731 7.740325 21.556797 0.000200 0.097200 0.267200 7.731963 8.795348 -4.825250 -18.633121 -8.409854 16.979207 -4.606363 -18.461738 44.649235 -2.075351 10.311171 -23.791082 -1.605500 7.990800 -22.686100 6.013331 -5.994817 21.196739 1.057228 -10.677804 -0.859045 -9.840662 -5.925430 13.524850 2.863802 14.556925 -7.926830 -16.933358 23.921412 0.556280 -7.912900 10.879700 2.121600 -10.507091 -2.407656 3.368941 -24.893514 -1.537381 -32.681792 6.241981 -14.662427 -1.956800 -0.433759 1.807085 51.519099 49.531090 -13.446752 -16.921700 -7.125000 0.000000 0.000000 15.357700 8.671400 -13.369300 10.707345 3.960819 5.236141 41.656275 -35.309228 -2.764924 -38.836070 50.179778 -21.259679 0.274050 -0.494201 -20.372559 -11.768332 14.067134 -3.035300 7.125000 0.000000 0.000000 10.624700 -15.215300 7.597600 
1.998220 16.067723 2.124883 151.938300 -30.527368 170.868149 -8.574848 -4.742297 -0.717497 19.524851 10.049793 -30.080031 3.156621 10.054949 31.753242 1.221821 7.024590 22.129481 0.003000 -0.351900 -0.966800 7.765306 8.771476 -4.798368 -18.846497 -8.056658 16.520673 -4.766890 -18.556826 45.219289 -2.107302 10.430059 -23.935197 -1.605800 7.991500 -22.688400 6.036971 -5.918647 21.280919 1.036313 -10.639031 -0.832766 -9.960394 -5.884376 13.572997 2.875370 14.583640 -8.073796 -17.042658 23.964607 0.394226 -7.928100 10.867900 2.119900 -10.512592 -2.427515 3.371510 -24.704304 -1.750102 -32.065286 6.454147 -15.026806 -2.025007 -0.452084 1.786284 50.436391 49.400224 -13.672042 -17.087200 -7.125000 0.000000 0.000000 15.210300 8.402200 -13.315200 10.662354 4.000147 5.168279 42.161540 -34.716302 -2.934016 -38.254310 49.901405 -20.751530 0.262333 -0.523712 -20.958069 -11.444827 14.474583 -3.028100 7.125000 0.000000 0.000000 10.854700 -14.808200 7.864600 
1.995533 16.049359 2.147995 151.714481 -30.201769 171.014371 -8.450612 -4.799847 -0.758761 18.526092 10.184884 -29.500703 3.405506 10.468952 32.976909 1.254316 6.481952 22.017341 0.022500 -0.968200 -2.661300 7.802358 8.748520 -4.764233 -19.123923 -7.747913 15.992662 -4.926123 -18.645905 45.790802 -2.137688 10.640454 -24.026627 -1.575400 7.919300 -22.469200 6.029695 -5.843568 21.345838 1.026712 -10.592292 -0.810100 -10.011019 -5.849598 13.626695 2.767693 14.614661 -8.223996 -17.124181 24.003130 0.250066 -7.918000 10.857600 2.101500 -10.511745 -2.448447 3.375874 -24.641846 -2.015112 -31.594203 6.696419 -15.429256 -2.108829 -0.454365 1.766808 49.647320 49.376448 -13.978589 -17.403700 -7.125000 0.000000 0.000000 15.102400 7.973800 -13.346000 10.619095 4.022491 5.114879 42.546146 -34.083496 -2.900786 -37.686334 49.633381 -20.247260 0.242852 -0.548380 -21.581956 -10.884677 15.057509 -2.979500 7.125000 0.000000 0.000000 11.243700 -14.253700 8.293400 
1.993472 16.033325 2.172808 151.450508 -29.860448 171.221795 -8.317602 -4.850758 -0.800978 17.480280 10.144132 -28.828438 3.614159 10.825987 34.003042 1.196047 6.514287 21.184129 0.025900 -1.038400 -2.854500 7.846482 8.725582 -4.722398 -19.471079 -7.442464 15.403729 -5.080238 -18.722314 46.345990 -2.163575 10.957326 -24.043830 -1.520000 7.785200 -22.063700 5.946515 -5.763550 21.400710 1.026346 -10.532439 -0.792421 -9.977251 -5.827155 13.668318 2.604130 14.648516 -8.281294 -17.259195 24.036743 0.059473 -7.939400 10.848800 2.048200 -10.503824 -2.466792 3.385114 -24.677324 -2.267467 -31.164551 6.946892 -15.836789 -2.198602 -0.454249 1.745462 49.014388 49.368689 -14.168372 -17.598200 -7.125000 0.000000 0.000000 15.033500 7.708600 -13.361700 10.586718 4.029073 5.077645 42.816148 -33.432582 -2.484939 -37.343877 49.484907 -19.906321 0.226805 -0.573602 -21.735311 -10.782117 15.219323 -2.976800 7.125000 0.000000 0.000000 11.326600 -14.083500 8.398900 
